# xmcd
#
# Track frame offsets:
#	150
#	12805
#	30248
#	42015
#	57956
#	68670
#	87140
#	100597
#	113341
#	127102
#	137006
#	153850
#	164054
#	178141
#
# Disc length: 2560 seconds
#
# Revision: 2
# Processed by: cddbd v1.5.2PL0 Copyright (c) Steve Scherf et al.
# Submitted via: EZCDAudioConverter 1.0.6.1
#
DISCID=a509fe0e
DTITLE=Clifton Chenier - Frenchin' the Boogie
DYEAR=2004
DGENRE=Blues
TTITLE0=Caldonia
TTITLE1=Laissez les bons temps rouler (Let The Good Times Roll)
TTITLE2=Tu peux cogner (mais tu peux pas rentrer)
TTITLE3=Le blues de la vache a lait (Milkcow Blues)
TTITLE4=Moi j'ai une p'tite femme (I've Got A Woman)
TTITLE5=Tous les jours mon coeur est blue (Every Day I Have The Blues)
TTITLE6=J'veux faire l'amour a toi (I Just Wanna Make Love To You)
TTITLE7=Choo choo ch' boogie
TTITLE8=La valse de Paris
TTITLE9=Shake, rattle and roll
TTITLE10=Going down slow (in Paris)
TTITLE11=Aye, aye mama
TTITLE12=Don't you lie to me
TTITLE13=I want to be your driver (bonus track)
EXTD=
EXTT0=
EXTT1=
EXTT2=
EXTT3=
EXTT4=
EXTT5=
EXTT6=
EXTT7=
EXTT8=
EXTT9=
EXTT10=
EXTT11=
EXTT12=
EXTT13=
PLAYORDER=
